<svg width="169" height="40" viewBox="0 0 169 40" fill="none" xmlns="http://www.w3.org/2000/svg">
<path d="M34.1422 5.85781C30.3647 2.08031 25.3422 0 20 0C14.6578 0 9.63531 2.08031 5.85781 5.85781C2.08031 9.63531 0 14.6578 0 20C0 25.3422 2.08039 30.3646 5.85781 34.1422C9.63523 37.9198 14.6578 40 20 40C25.3422 40 30.3647 37.9197 34.1422 34.1422C37.9197 30.3647 40 25.3422 40 20C40 14.6578 37.9196 9.63539 34.1422 5.85781Z" fill="#33CC95"/>
<path d="M20.5714 8V33.1429" stroke="white" stroke-width="2" stroke-linecap="round" stroke-linejoin="round"/>
<path d="M26.2857 12.5714H17.7143C16.6534 12.5714 15.636 12.9929 14.8859 13.743C14.1357 14.4931 13.7143 15.5106 13.7143 16.5714C13.7143 17.6323 14.1357 18.6497 14.8859 19.3999C15.636 20.15 16.6534 20.5714 17.7143 20.5714H23.4286C24.4894 20.5714 25.5069 20.9929 26.257 21.743C27.0072 22.4932 27.4286 23.5106 27.4286 24.5714C27.4286 25.6323 27.0072 26.6497 26.257 27.3999C25.5069 28.15 24.4894 28.5714 23.4286 28.5714H13.7143" stroke="white" stroke-width="2" stroke-linecap="round" stroke-linejoin="round"/>
<path d="M62.08 14C62.24 14 62.3733 14.06 62.48 14.18C62.6 14.2867 62.66 14.4267 62.66 14.6V27.4C62.66 27.5733 62.6 27.72 62.48 27.84C62.36 27.9467 62.2133 28 62.04 28C61.8533 28 61.7 27.9467 61.58 27.84C61.46 27.72 61.4 27.5733 61.4 27.4V16.4L56.7 23.52C56.5667 23.6933 56.4133 23.7733 56.24 23.76H56.2C56.04 23.76 55.8933 23.68 55.76 23.52L51.06 16.36V27.4C51.06 27.5733 51 27.72 50.88 27.84C50.7733 27.9467 50.6333 28 50.46 28C50.2867 28 50.1467 27.9467 50.04 27.84C49.9333 27.72 49.88 27.5733 49.88 27.4V14.6C49.88 14.44 49.9333 14.3 50.04 14.18C50.16 14.06 50.3067 14 50.48 14C50.5733 14 50.6733 14.0267 50.78 14.08C50.8867 14.12 50.9667 14.18 51.02 14.26L56.26 22.12L61.54 14.26C61.6867 14.06 61.8667 13.9733 62.08 14ZM73.843 17.6C74.0163 17.6 74.1563 17.66 74.263 17.78C74.383 17.8867 74.443 18.0267 74.443 18.2V27.02C74.443 28.0733 74.2363 28.9733 73.823 29.72C73.4096 30.4667 72.8363 31.0333 72.103 31.42C71.3696 31.8067 70.543 32 69.623 32C69.063 32 68.5363 31.94 68.043 31.82C67.563 31.7 67.163 31.54 66.843 31.34C66.563 31.1667 66.423 30.9733 66.423 30.76C66.423 30.7333 66.4363 30.6667 66.463 30.56C66.503 30.4267 66.5696 30.3267 66.663 30.26C66.7563 30.1933 66.8563 30.16 66.963 30.16C67.043 30.16 67.123 30.18 67.203 30.22C68.0563 30.6867 68.8696 30.92 69.643 30.92C70.7496 30.92 71.623 30.5733 72.263 29.88C72.9163 29.1867 73.243 28.24 73.243 27.04V26.34C72.9096 26.9 72.4296 27.3533 71.803 27.7C71.1763 28.0333 70.4963 28.2 69.763 28.2C68.603 28.2 67.723 27.8533 67.123 27.16C66.523 26.4667 66.223 25.5267 66.223 24.34V18.2C66.223 18.0267 66.2763 17.8867 66.383 17.78C66.503 17.66 66.6496 17.6 66.823 17.6C66.9963 17.6 67.1363 17.66 67.243 17.78C67.363 17.8867 67.423 18.0267 67.423 18.2V24.16C67.423 25.12 67.6296 25.8467 68.043 26.34C68.4696 26.8333 69.1296 27.08 70.023 27.08C70.5696 27.08 71.0896 26.9467 71.583 26.68C72.0896 26.4 72.4896 26.04 72.783 25.6C73.0896 25.1467 73.243 24.6667 73.243 24.16V18.2C73.243 18.0267 73.2963 17.8867 73.403 17.78C73.523 17.66 73.6696 17.6 73.843 17.6ZM91.4989 26.82C91.6722 26.82 91.8122 26.88 91.9189 27C92.0389 27.12 92.0989 27.26 92.0989 27.42C92.0989 27.5933 92.0389 27.7333 91.9189 27.84C91.8122 27.9467 91.6722 28 91.4989 28H84.1589C83.9856 28 83.8389 27.9467 83.7189 27.84C83.6122 27.72 83.5589 27.5733 83.5589 27.4V14.6C83.5589 14.4267 83.6122 14.2867 83.7189 14.18C83.8389 14.06 83.9856 14 84.1589 14H91.4989C91.6722 14 91.8122 14.06 91.9189 14.18C92.0389 14.2867 92.0989 14.4267 92.0989 14.6C92.0989 14.7733 92.0389 14.9133 91.9189 15.02C91.8122 15.1267 91.6722 15.18 91.4989 15.18H84.8189V20.2H90.5989C90.7722 20.2 90.9122 20.26 91.0189 20.38C91.1389 20.4867 91.1989 20.6267 91.1989 20.8C91.1989 20.9733 91.1389 21.1133 91.0189 21.22C90.9122 21.3267 90.7722 21.38 90.5989 21.38H84.8189V26.82H91.4989ZM102.006 27.1C102.099 27.2067 102.146 27.3267 102.146 27.46C102.146 27.62 102.086 27.7667 101.966 27.9C101.846 28.02 101.706 28.08 101.546 28.08C101.359 28.08 101.193 27.9867 101.046 27.8L97.9861 23.84L94.9261 27.82C94.8061 27.98 94.6461 28.06 94.4461 28.06C94.2994 28.06 94.1661 28.0133 94.0461 27.92C93.9261 27.8133 93.8661 27.68 93.8661 27.52C93.8661 27.3733 93.9128 27.2467 94.0061 27.14L97.2861 22.94L93.9461 18.64C93.8661 18.5333 93.8261 18.4133 93.8261 18.28C93.8261 18.12 93.8861 17.98 94.0061 17.86C94.1394 17.74 94.2861 17.68 94.4461 17.68C94.6461 17.68 94.8061 17.7667 94.9261 17.94L98.0461 21.96L101.046 17.94C101.179 17.7667 101.346 17.68 101.546 17.68C101.719 17.68 101.853 17.7333 101.946 17.84C102.053 17.9333 102.106 18.0533 102.106 18.2C102.106 18.3467 102.059 18.4733 101.966 18.58L98.7261 22.84L102.006 27.1ZM109.374 17.7C110.254 17.7 111.054 17.9267 111.774 18.38C112.494 18.82 113.054 19.44 113.454 20.24C113.867 21.0267 114.074 21.9133 114.074 22.9C114.074 23.9 113.867 24.8 113.454 25.6C113.054 26.3867 112.494 27.0067 111.774 27.46C111.067 27.9133 110.274 28.14 109.394 28.14C108.62 28.14 107.907 27.96 107.254 27.6C106.614 27.2267 106.1 26.7333 105.714 26.12V31.4C105.714 31.5733 105.654 31.7133 105.534 31.82C105.427 31.94 105.287 32 105.114 32C104.94 32 104.794 31.94 104.674 31.82C104.567 31.7133 104.514 31.5733 104.514 31.4V18.36C104.514 18.1867 104.567 18.04 104.674 17.92C104.794 17.8 104.94 17.74 105.114 17.74C105.287 17.74 105.427 17.8 105.534 17.92C105.654 18.04 105.714 18.1867 105.714 18.36V19.72C106.06 19.0933 106.56 18.6 107.214 18.24C107.867 17.88 108.587 17.7 109.374 17.7ZM109.274 27.02C109.967 27.02 110.587 26.8467 111.134 26.5C111.694 26.14 112.127 25.6467 112.434 25.02C112.754 24.3933 112.914 23.6867 112.914 22.9C112.914 22.1267 112.754 21.4333 112.434 20.82C112.127 20.1933 111.694 19.7067 111.134 19.36C110.587 19 109.967 18.82 109.274 18.82C108.567 18.82 107.934 18.9933 107.374 19.34C106.814 19.6867 106.38 20.1733 106.074 20.8C105.767 21.4133 105.614 22.1133 105.614 22.9C105.614 23.6867 105.767 24.3933 106.074 25.02C106.38 25.6467 106.814 26.14 107.374 26.5C107.934 26.8467 108.567 27.02 109.274 27.02ZM125.285 22.3C125.285 22.46 125.225 22.6 125.105 22.72C124.985 22.8267 124.845 22.88 124.685 22.88H117.125C117.125 23.68 117.285 24.4 117.605 25.04C117.938 25.6667 118.405 26.1667 119.005 26.54C119.618 26.9 120.338 27.08 121.165 27.08C121.805 27.08 122.378 26.9467 122.885 26.68C123.392 26.4133 123.798 26.0733 124.105 25.66C124.252 25.54 124.392 25.48 124.525 25.48C124.658 25.48 124.778 25.5333 124.885 25.64C124.992 25.7467 125.045 25.8667 125.045 26C125.045 26.1467 124.978 26.2867 124.845 26.42C124.418 26.94 123.878 27.3667 123.225 27.7C122.585 28.0333 121.905 28.2 121.185 28.2C120.158 28.2 119.252 27.98 118.465 27.54C117.678 27.1 117.065 26.4867 116.625 25.7C116.185 24.9 115.965 23.98 115.965 22.94C115.965 21.8467 116.178 20.8933 116.605 20.08C117.045 19.2533 117.625 18.6267 118.345 18.2C119.065 17.76 119.832 17.54 120.645 17.54C121.445 17.54 122.192 17.7267 122.885 18.1C123.592 18.4733 124.165 19.02 124.605 19.74C125.045 20.46 125.272 21.3133 125.285 22.3ZM120.645 18.7C119.872 18.7 119.152 18.9667 118.485 19.5C117.832 20.0333 117.412 20.8 117.225 21.8H124.045V21.64C123.978 21.04 123.778 20.52 123.445 20.08C123.112 19.6267 122.692 19.2867 122.185 19.06C121.692 18.82 121.178 18.7 120.645 18.7ZM132.678 17.54C133.918 17.54 134.825 17.9067 135.398 18.64C135.985 19.36 136.278 20.32 136.278 21.52V27.4C136.278 27.5733 136.218 27.72 136.098 27.84C135.978 27.9467 135.838 28 135.678 28C135.505 28 135.358 27.9467 135.238 27.84C135.131 27.72 135.078 27.5733 135.078 27.4V21.58C135.078 20.7133 134.858 20.0133 134.418 19.48C133.991 18.9333 133.325 18.66 132.418 18.66C131.845 18.66 131.298 18.7933 130.778 19.06C130.271 19.3267 129.858 19.6867 129.538 20.14C129.218 20.58 129.058 21.06 129.058 21.58V27.4C129.058 27.5733 128.998 27.72 128.878 27.84C128.771 27.9467 128.631 28 128.458 28C128.285 28 128.138 27.9467 128.018 27.84C127.911 27.72 127.858 27.5733 127.858 27.4V18.44C127.858 18.2667 127.911 18.1267 128.018 18.02C128.138 17.9 128.285 17.84 128.458 17.84C128.631 17.84 128.771 17.9 128.878 18.02C128.998 18.1267 129.058 18.2667 129.058 18.44V19.54C129.418 18.9667 129.931 18.4933 130.598 18.12C131.278 17.7333 131.971 17.54 132.678 17.54ZM138.941 26.38C138.834 26.2067 138.781 26.06 138.781 25.94C138.781 25.7667 138.867 25.6333 139.041 25.54C139.121 25.46 139.227 25.42 139.361 25.42C139.521 25.42 139.667 25.4867 139.801 25.62C140.587 26.66 141.634 27.18 142.941 27.18C143.581 27.18 144.134 27.0333 144.601 26.74C145.081 26.4333 145.321 25.9933 145.321 25.42C145.321 24.86 145.101 24.44 144.661 24.16C144.221 23.88 143.607 23.64 142.821 23.44C141.714 23.16 140.847 22.8 140.221 22.36C139.594 21.9067 139.281 21.2467 139.281 20.38C139.281 19.8333 139.434 19.3467 139.741 18.92C140.047 18.48 140.461 18.14 140.981 17.9C141.514 17.66 142.114 17.54 142.781 17.54C143.354 17.54 143.927 17.6533 144.501 17.88C145.087 18.0933 145.587 18.44 146.001 18.92C146.121 19.0133 146.181 19.1467 146.181 19.32C146.181 19.48 146.114 19.62 145.981 19.74C145.887 19.82 145.767 19.86 145.621 19.86C145.487 19.86 145.367 19.8067 145.261 19.7C144.941 19.34 144.561 19.0667 144.121 18.88C143.681 18.6933 143.207 18.6 142.701 18.6C142.074 18.6 141.534 18.7467 141.081 19.04C140.641 19.3333 140.421 19.7733 140.421 20.36C140.447 20.8933 140.687 21.3 141.141 21.58C141.607 21.86 142.287 22.1133 143.181 22.34C143.874 22.5133 144.447 22.7067 144.901 22.92C145.354 23.1333 145.721 23.4333 146.001 23.82C146.294 24.2067 146.441 24.72 146.441 25.36C146.441 26.2267 146.094 26.92 145.401 27.44C144.707 27.9467 143.847 28.2 142.821 28.2C141.194 28.2 139.901 27.5933 138.941 26.38ZM157.636 22.3C157.636 22.46 157.576 22.6 157.456 22.72C157.336 22.8267 157.196 22.88 157.036 22.88H149.476C149.476 23.68 149.636 24.4 149.956 25.04C150.289 25.6667 150.756 26.1667 151.356 26.54C151.969 26.9 152.689 27.08 153.516 27.08C154.156 27.08 154.729 26.9467 155.236 26.68C155.742 26.4133 156.149 26.0733 156.456 25.66C156.602 25.54 156.742 25.48 156.876 25.48C157.009 25.48 157.129 25.5333 157.236 25.64C157.342 25.7467 157.396 25.8667 157.396 26C157.396 26.1467 157.329 26.2867 157.196 26.42C156.769 26.94 156.229 27.3667 155.576 27.7C154.936 28.0333 154.256 28.2 153.536 28.2C152.509 28.2 151.602 27.98 150.816 27.54C150.029 27.1 149.416 26.4867 148.976 25.7C148.536 24.9 148.316 23.98 148.316 22.94C148.316 21.8467 148.529 20.8933 148.956 20.08C149.396 19.2533 149.976 18.6267 150.696 18.2C151.416 17.76 152.182 17.54 152.996 17.54C153.796 17.54 154.542 17.7267 155.236 18.1C155.942 18.4733 156.516 19.02 156.956 19.74C157.396 20.46 157.622 21.3133 157.636 22.3ZM152.996 18.7C152.222 18.7 151.502 18.9667 150.836 19.5C150.182 20.0333 149.762 20.8 149.576 21.8H156.396V21.64C156.329 21.04 156.129 20.52 155.796 20.08C155.462 19.6267 155.042 19.2867 154.536 19.06C154.042 18.82 153.529 18.7 152.996 18.7ZM159.629 26.38C159.522 26.2067 159.469 26.06 159.469 25.94C159.469 25.7667 159.556 25.6333 159.729 25.54C159.809 25.46 159.916 25.42 160.049 25.42C160.209 25.42 160.356 25.4867 160.489 25.62C161.276 26.66 162.322 27.18 163.629 27.18C164.269 27.18 164.822 27.0333 165.289 26.74C165.769 26.4333 166.009 25.9933 166.009 25.42C166.009 24.86 165.789 24.44 165.349 24.16C164.909 23.88 164.296 23.64 163.509 23.44C162.402 23.16 161.536 22.8 160.909 22.36C160.282 21.9067 159.969 21.2467 159.969 20.38C159.969 19.8333 160.122 19.3467 160.429 18.92C160.736 18.48 161.149 18.14 161.669 17.9C162.202 17.66 162.802 17.54 163.469 17.54C164.042 17.54 164.616 17.6533 165.189 17.88C165.776 18.0933 166.276 18.44 166.689 18.92C166.809 19.0133 166.869 19.1467 166.869 19.32C166.869 19.48 166.802 19.62 166.669 19.74C166.576 19.82 166.456 19.86 166.309 19.86C166.176 19.86 166.056 19.8067 165.949 19.7C165.629 19.34 165.249 19.0667 164.809 18.88C164.369 18.6933 163.896 18.6 163.389 18.6C162.762 18.6 162.222 18.7467 161.769 19.04C161.329 19.3333 161.109 19.7733 161.109 20.36C161.136 20.8933 161.376 21.3 161.829 21.58C162.296 21.86 162.976 22.1133 163.869 22.34C164.562 22.5133 165.136 22.7067 165.589 22.92C166.042 23.1333 166.409 23.4333 166.689 23.82C166.982 24.2067 167.129 24.72 167.129 25.36C167.129 26.2267 166.782 26.92 166.089 27.44C165.396 27.9467 164.536 28.2 163.509 28.2C161.882 28.2 160.589 27.5933 159.629 26.38Z" fill="white"/>
<path d="M62.08 14L62.018 14.4961L62.0489 14.5H62.08V14ZM62.48 14.18L62.1063 14.5122L62.1258 14.5342L62.1478 14.5537L62.48 14.18ZM62.48 27.84L62.8122 28.2137L62.8232 28.2039L62.8336 28.1936L62.48 27.84ZM61.58 27.84L61.2264 28.1936L61.2368 28.2039L61.2478 28.2137L61.58 27.84ZM61.4 16.4H61.9V14.735L60.9827 16.1245L61.4 16.4ZM56.7 23.52L57.0963 23.8249L57.1073 23.8105L57.1173 23.7955L56.7 23.52ZM56.24 23.76L56.2783 23.2615L56.2592 23.26H56.24V23.76ZM55.76 23.52L55.342 23.7944L55.3576 23.8182L55.3759 23.8401L55.76 23.52ZM51.06 16.36L51.478 16.0856L50.56 14.6871V16.36H51.06ZM50.88 27.84L50.5264 27.4864L50.5264 27.4864L50.88 27.84ZM50.04 27.84L49.6663 28.1722L49.6761 28.1832L49.6864 28.1936L50.04 27.84ZM50.04 14.18L49.6864 13.8264L49.6761 13.8368L49.6663 13.8478L50.04 14.18ZM50.78 14.08L50.5564 14.5272L50.5799 14.5389L50.6044 14.5482L50.78 14.08ZM51.02 14.26L51.436 13.9826L51.436 13.9826L51.02 14.26ZM56.26 22.12L55.844 22.3974L56.2584 23.019L56.675 22.3988L56.26 22.12ZM61.54 14.26L61.1368 13.9643L61.1307 13.9726L61.125 13.9812L61.54 14.26ZM62.08 14.5C62.0886 14.5 62.0933 14.5008 62.0948 14.5011C62.0962 14.5014 62.0959 14.5015 62.0948 14.501C62.0937 14.5005 62.0937 14.5003 62.095 14.5012C62.0964 14.5023 62.1003 14.5055 62.1063 14.5122L62.8537 13.8478C62.6525 13.6215 62.3834 13.5 62.08 13.5V14.5ZM62.1478 14.5537C62.1525 14.5579 62.1544 14.5604 62.1549 14.561C62.1552 14.5615 62.1553 14.5616 62.1554 14.562C62.1556 14.5624 62.1566 14.5648 62.1577 14.5703C62.1588 14.5759 62.16 14.5855 62.16 14.6H63.16C63.16 14.2966 63.0481 14.016 62.8122 13.8063L62.1478 14.5537ZM62.16 14.6V27.4H63.16V14.6H62.16ZM62.16 27.4C62.16 27.4439 62.1505 27.4624 62.1264 27.4864L62.8336 28.1936C63.0495 27.9776 63.16 27.7028 63.16 27.4H62.16ZM62.1478 27.4663C62.127 27.4848 62.1015 27.5 62.04 27.5V28.5C62.3252 28.5 62.593 28.4085 62.8122 28.2137L62.1478 27.4663ZM62.04 27.5C61.9546 27.5 61.926 27.4786 61.9122 27.4663L61.2478 28.2137C61.474 28.4148 61.752 28.5 62.04 28.5V27.5ZM61.9336 27.4864C61.9095 27.4624 61.9 27.4439 61.9 27.4H60.9C60.9 27.7028 61.0105 27.9776 61.2264 28.1936L61.9336 27.4864ZM61.9 27.4V16.4H60.9V27.4H61.9ZM60.9827 16.1245L56.2827 23.2445L57.1173 23.7955L61.8173 16.6755L60.9827 16.1245ZM56.3037 23.2151C56.27 23.259 56.2513 23.268 56.2537 23.2667C56.2552 23.2659 56.2597 23.2639 56.2663 23.2626C56.2728 23.2613 56.2774 23.2614 56.2783 23.2615L56.2017 24.2585C56.5872 24.2882 56.8902 24.0928 57.0963 23.8249L56.3037 23.2151ZM56.24 23.26H56.2V24.26H56.24V23.26ZM56.2 23.26C56.2022 23.26 56.2054 23.2603 56.2087 23.2612C56.2119 23.262 56.2123 23.2626 56.2094 23.2611C56.2032 23.2576 56.1801 23.243 56.1441 23.1999L55.3759 23.8401C55.5734 24.0772 55.8495 24.26 56.2 24.26V23.26ZM56.178 23.2456L51.478 16.0856L50.642 16.6344L55.342 23.7944L56.178 23.2456ZM50.56 16.36V27.4H51.56V16.36H50.56ZM50.56 27.4C50.56 27.4439 50.5505 27.4624 50.5264 27.4864L51.2336 28.1936C51.4495 27.9776 51.56 27.7028 51.56 27.4H50.56ZM50.5264 27.4864C50.5226 27.4903 50.5207 27.4914 50.517 27.4928C50.512 27.4947 50.4952 27.5 50.46 27.5V28.5C50.7445 28.5 51.019 28.4081 51.2336 28.1936L50.5264 27.4864ZM50.46 27.5C50.4248 27.5 50.408 27.4947 50.403 27.4928C50.3993 27.4914 50.3974 27.4903 50.3936 27.4864L49.6864 28.1936C49.901 28.4081 50.1755 28.5 50.46 28.5V27.5ZM50.4137 27.5078C50.3952 27.487 50.38 27.4615 50.38 27.4H49.38C49.38 27.6852 49.4715 27.953 49.6663 28.1722L50.4137 27.5078ZM50.38 27.4V14.6H49.38V27.4H50.38ZM50.38 14.6C50.38 14.5629 50.3881 14.541 50.4137 14.5122L49.6663 13.8478C49.4786 14.059 49.38 14.3171 49.38 14.6H50.38ZM50.3936 14.5336C50.4176 14.5095 50.4361 14.5 50.48 14.5V13.5C50.1772 13.5 49.9024 13.6105 49.6864 13.8264L50.3936 14.5336ZM50.48 14.5C50.4772 14.5 50.5005 14.4992 50.5564 14.5272L51.0036 13.6328C50.8462 13.5541 50.6695 13.5 50.48 13.5V14.5ZM50.6044 14.5482C50.6193 14.5537 50.6229 14.5572 50.62 14.555C50.6186 14.5539 50.616 14.5518 50.6129 14.5486C50.6098 14.5453 50.6067 14.5415 50.604 14.5374L51.436 13.9826C51.3144 13.8002 51.1418 13.6817 50.9556 13.6118L50.6044 14.5482ZM50.604 14.5373L55.844 22.3974L56.676 21.8426L51.436 13.9826L50.604 14.5373ZM56.675 22.3988L61.955 14.5388L61.125 13.9812L55.845 21.8412L56.675 22.3988ZM61.9432 14.5557C61.9796 14.5061 62.0015 14.4957 62.0019 14.4955C62.0024 14.4953 62.0024 14.4953 62.002 14.4954C62.0016 14.4956 62.0014 14.4956 62.0017 14.4955C62.0018 14.4955 62.0067 14.4947 62.018 14.4961L62.142 13.5039C61.7178 13.4508 61.3709 13.6451 61.1368 13.9643L61.9432 14.5557ZM74.263 17.78L73.8893 18.1122L73.9088 18.1342L73.9308 18.1537L74.263 17.78ZM68.043 31.82L67.9217 32.3051L67.9248 32.3058L68.043 31.82ZM66.843 31.34L67.108 30.916L67.1061 30.9149L66.843 31.34ZM66.463 30.56L65.9841 30.4163L65.9807 30.4275L65.9779 30.4387L66.463 30.56ZM67.203 30.22L67.4429 29.7813L67.4348 29.7769L67.4266 29.7728L67.203 30.22ZM72.263 29.88L71.8991 29.5371L71.8956 29.5409L72.263 29.88ZM73.243 26.34H73.743V24.5225L72.8133 26.0843L73.243 26.34ZM71.803 27.7L72.0378 28.1415L72.045 28.1375L71.803 27.7ZM67.123 27.16L66.7449 27.4872L66.7449 27.4872L67.123 27.16ZM66.383 17.78L66.0294 17.4264L66.0294 17.4264L66.383 17.78ZM67.243 17.78L66.8693 18.1122L66.8888 18.1342L66.9108 18.1537L67.243 17.78ZM68.043 26.34L67.6597 26.6611L67.6648 26.6671L68.043 26.34ZM71.583 26.68L71.8207 27.1199L71.8248 27.1176L71.583 26.68ZM72.783 25.6L72.3688 25.3198L72.3669 25.3226L72.783 25.6ZM73.403 17.78L73.7565 18.1336L73.403 17.78ZM73.843 18.1C73.8574 18.1 73.867 18.1012 73.8727 18.1023C73.8782 18.1034 73.8806 18.1044 73.881 18.1046C73.8813 18.1047 73.8815 18.1048 73.882 18.1051C73.8826 18.1056 73.8851 18.1075 73.8893 18.1122L74.6367 17.4478C74.4269 17.2119 74.1463 17.1 73.843 17.1V18.1ZM73.9308 18.1537C73.9355 18.1579 73.9374 18.1604 73.9378 18.161C73.9382 18.1615 73.9383 18.1616 73.9384 18.162C73.9386 18.1624 73.9396 18.1648 73.9406 18.1703C73.9417 18.1759 73.943 18.1855 73.943 18.2H74.943C74.943 17.8966 74.8311 17.616 74.5952 17.4063L73.9308 18.1537ZM73.943 18.2V27.02H74.943V18.2H73.943ZM73.943 27.02C73.943 28.0082 73.7493 28.8207 73.3855 29.4778L74.2604 29.9622C74.7233 29.1259 74.943 28.1384 74.943 27.02H73.943ZM73.3855 29.4778C73.0179 30.142 72.5143 30.6378 71.8698 30.9777L72.3362 31.8623C73.1583 31.4288 73.8014 30.7913 74.2604 29.9622L73.3855 29.4778ZM71.8698 30.9777C71.2159 31.3225 70.4708 31.5 69.623 31.5V32.5C70.6152 32.5 71.5233 32.2909 72.3362 31.8623L71.8698 30.9777ZM69.623 31.5C69.0987 31.5 68.6121 31.4438 68.1611 31.3342L67.9248 32.3058C68.4606 32.4362 69.0272 32.5 69.623 32.5V31.5ZM68.1642 31.3349C67.7202 31.2239 67.3722 31.0811 67.108 30.916L66.578 31.764C66.9537 31.9989 67.4058 32.1761 67.9217 32.3051L68.1642 31.3349ZM67.1061 30.9149C67.0019 30.8503 66.9532 30.7997 66.9329 30.7717C66.917 30.7498 66.923 30.749 66.923 30.76H65.923C65.923 31.2271 66.2374 31.5532 66.5798 31.7651L67.1061 30.9149ZM66.923 30.76C66.923 30.7762 66.922 30.7881 66.9215 30.7934C66.921 30.7993 66.9205 30.8028 66.9204 30.8032C66.9204 30.8037 66.921 30.7992 66.9233 30.7881C66.9277 30.7657 66.9356 30.731 66.948 30.6813L65.9779 30.4387C65.9637 30.4957 65.9515 30.5476 65.9427 30.5919C65.9365 30.623 65.923 30.6911 65.923 30.76H66.923ZM66.9419 30.7037C66.9499 30.6771 66.9571 30.6652 66.959 30.6624C66.9603 30.6603 66.9586 30.6633 66.9536 30.6669L66.3723 29.8531C66.1708 29.9971 66.0489 30.2002 65.9841 30.4163L66.9419 30.7037ZM66.9536 30.6669C66.9633 30.66 66.9673 30.6589 66.9661 30.6593C66.9657 30.6595 66.9648 30.6597 66.9638 30.6599C66.9628 30.66 66.9625 30.66 66.963 30.66V29.66C66.7441 29.66 66.5437 29.7307 66.3723 29.8531L66.9536 30.6669ZM66.963 30.66C66.9608 30.66 66.9601 30.6597 66.9617 30.6601C66.9635 30.6605 66.9693 30.6622 66.9794 30.6672L67.4266 29.7728C67.2854 29.7022 67.1294 29.66 66.963 29.66V30.66ZM66.9631 30.6587C67.8714 31.1554 68.7669 31.42 69.643 31.42V30.42C68.9724 30.42 68.2413 30.2179 67.4429 29.7813L66.9631 30.6587ZM69.643 31.42C70.8628 31.42 71.8792 31.0329 72.6304 30.2191L71.8956 29.5409C71.3667 30.1138 70.6364 30.42 69.643 30.42V31.42ZM72.6269 30.2229C73.3887 29.4144 73.743 28.3329 73.743 27.04H72.743C72.743 28.1471 72.4439 28.959 71.8991 29.5371L72.6269 30.2229ZM73.743 27.04V26.34H72.743V27.04H73.743ZM72.8133 26.0843C72.5297 26.5607 72.118 26.9543 71.5609 27.2625L72.045 28.1375C72.7413 27.7523 73.2896 27.2393 73.6726 26.5957L72.8133 26.0843ZM71.5682 27.2586C71.0162 27.5521 70.4172 27.7 69.763 27.7V28.7C70.5754 28.7 71.3364 28.5145 72.0378 28.1414L71.5682 27.2586ZM69.763 27.7C68.7067 27.7 67.982 27.3885 67.5011 26.8328L66.7449 27.4872C67.464 28.3181 68.4993 28.7 69.763 28.7V27.7ZM67.5011 26.8328C67.0005 26.2544 66.723 25.4426 66.723 24.34H65.723C65.723 25.6107 66.0455 26.679 66.7449 27.4872L67.5011 26.8328ZM66.723 24.34V18.2H65.723V24.34H66.723ZM66.723 18.2C66.723 18.1648 66.7283 18.148 66.7302 18.143C66.7316 18.1393 66.7327 18.1374 66.7365 18.1336L66.0294 17.4264C65.8148 17.641 65.723 17.9155 65.723 18.2H66.723ZM66.7365 18.1336C66.7605 18.1095 66.7791 18.1 66.823 18.1V17.1C66.5202 17.1 66.2454 17.2105 66.0294 17.4264L66.7365 18.1336ZM66.823 18.1C66.8374 18.1 66.847 18.1012 66.8527 18.1023C66.8582 18.1034 66.8606 18.1044 66.861 18.1046C66.8613 18.1047 66.8615 18.1048 66.862 18.1051C66.8626 18.1056 66.8651 18.1075 66.8693 18.1122L67.6167 17.4478C67.4069 17.2119 67.1263 17.1 66.823 17.1V18.1ZM66.9108 18.1537C66.9155 18.1579 66.9174 18.1604 66.9178 18.161C66.9182 18.1615 66.9183 18.1616 66.9184 18.162C66.9186 18.1624 66.9196 18.1648 66.9206 18.1703C66.9217 18.1759 66.923 18.1855 66.923 18.2H67.923C67.923 17.8966 67.8111 17.616 67.5752 17.4063L66.9108 18.1537ZM66.923 18.2V24.16H67.923V18.2H66.923ZM66.923 24.16C66.923 25.1817 67.1416 26.0427 67.6597 26.6611L68.4262 26.0189C68.1177 25.6506 67.923 25.0583 67.923 24.16H66.923ZM67.6648 26.6671C68.2179 27.3066 69.0407 27.58 70.023 27.58V26.58C69.2186 26.58 68.7214 26.3601 68.4212 26.0129L67.6648 26.6671ZM70.023 27.58C70.6549 27.58 71.2563 27.4249 71.8207 27.1199L71.3452 26.2401C70.9229 26.4684 70.4844 26.58 70.023 26.58V27.58ZM71.8248 27.1176C72.3948 26.8026 72.8572 26.3901 73.199 25.8773L72.3669 25.3226C72.1221 25.6899 71.7845 25.9974 71.3411 26.2424L71.8248 27.1176ZM73.1971 25.8802C73.555 25.3511 73.743 24.7746 73.743 24.16H72.743C72.743 24.5587 72.6242 24.9423 72.3688 25.3198L73.1971 25.8802ZM73.743 24.16V18.2H72.743V24.16H73.743ZM73.743 18.2C73.743 18.1648 73.7483 18.148 73.7502 18.143C73.7516 18.1393 73.7527 18.1374 73.7565 18.1336L73.0494 17.4264C72.8348 17.641 72.743 17.9155 72.743 18.2H73.743ZM73.7565 18.1336C73.7805 18.1095 73.7991 18.1 73.843 18.1V17.1C73.5402 17.1 73.2654 17.2105 73.0494 17.4264L73.7565 18.1336ZM91.9189 27L91.5452 27.3322L91.555 27.3432L91.5654 27.3536L91.9189 27ZM91.9189 27.84L91.5867 27.4663L91.5757 27.4761L91.5654 27.4864L91.9189 27.84ZM83.7189 27.84L83.3452 28.1722L83.3647 28.1942L83.3867 28.2137L83.7189 27.84ZM83.7189 14.18L83.3654 13.8264L83.3654 13.8264L83.7189 14.18ZM91.9189 14.18L91.5452 14.5122L91.5647 14.5342L91.5867 14.5537L91.9189 14.18ZM91.9189 15.02L91.5867 14.6463L91.5757 14.6561L91.5654 14.6664L91.9189 15.02ZM84.8189 15.18V14.68H84.3189V15.18H84.8189ZM84.8189 20.2H84.3189V20.7H84.8189V20.2ZM91.0189 20.38L90.6452 20.7122L90.6647 20.7342L90.6867 20.7537L91.0189 20.38ZM91.0189 21.22L90.6867 20.8463L90.6757 20.8561L90.6654 20.8664L91.0189 21.22ZM84.8189 21.38V20.88H84.3189V21.38H84.8189ZM84.8189 26.82H84.3189V27.32H84.8189V26.82ZM91.4989 27.32C91.5134 27.32 91.523 27.3212 91.5286 27.3223C91.5341 27.3234 91.5365 27.3244 91.5369 27.3246C91.5373 27.3247 91.5374 27.3248 91.5379 27.3251C91.5385 27.3256 91.541 27.3275 91.5452 27.3322L92.2926 26.6678C92.0829 26.4319 91.8023 26.32 91.4989 26.32V27.32ZM91.5654 27.3536C91.5979 27.3861 91.5989 27.4013 91.5989 27.42H92.5989C92.5989 27.1187 92.4799 26.8539 92.2725 26.6464L91.5654 27.3536ZM91.5989 27.42C91.5989 27.4345 91.5977 27.4441 91.5966 27.4497C91.5955 27.4552 91.5945 27.4576 91.5943 27.458C91.5942 27.4584 91.5941 27.4585 91.5938 27.459C91.5933 27.4596 91.5914 27.4621 91.5867 27.4663L92.2511 28.2137C92.487 28.004 92.5989 27.7234 92.5989 27.42H91.5989ZM91.5654 27.4864C91.5615 27.4903 91.5596 27.4914 91.5559 27.4928C91.5509 27.4947 91.5341 27.5 91.4989 27.5V28.5C91.7834 28.5 92.0579 28.4081 92.2725 28.1936L91.5654 27.4864ZM91.4989 27.5H84.1589V28.5H91.4989V27.5ZM84.1589 27.5C84.0975 27.5 84.072 27.4848 84.0511 27.4663L83.3867 28.2137C83.6059 28.4085 83.8737 28.5 84.1589 28.5V27.5ZM84.0926 27.5078C84.0741 27.487 84.0589 27.4615 84.0589 27.4H83.0589C83.0589 27.6852 83.1504 27.953 83.3452 28.1722L84.0926 27.5078ZM84.0589 27.4V14.6H83.0589V27.4H84.0589ZM84.0589 14.6C84.0589 14.5648 84.0643 14.548 84.0661 14.543C84.0675 14.5393 84.0686 14.5374 84.0725 14.5336L83.3654 13.8264C83.1508 14.041 83.0589 14.3155 83.0589 14.6H84.0589ZM84.0725 14.5336C84.0965 14.5095 84.115 14.5 84.1589 14.5V13.5C83.8561 13.5 83.5813 13.6105 83.3654 13.8264L84.0725 14.5336ZM84.1589 14.5H91.4989V13.5H84.1589V14.5ZM91.4989 14.5C91.5134 14.5 91.523 14.5012 91.5286 14.5023C91.5341 14.5034 91.5365 14.5044 91.5369 14.5046C91.5373 14.5047 91.5374 14.5048 91.5379 14.5051C91.5385 14.5056 91.541 14.5075 91.5452 14.5122L92.2926 13.8478C92.0829 13.6119 91.8023 13.5 91.4989 13.5V14.5ZM91.5867 14.5537C91.5914 14.5579 91.5933 14.5604 91.5938 14.561C91.5941 14.5615 91.5942 14.5616 91.5943 14.562C91.5945 14.5624 91.5955 14.5648 91.5966 14.5703C91.5977 14.5759 91.5989 14.5855 91.5989 14.6H92.5989C92.5989 14.2966 92.487 14.016 92.2511 13.8063L91.5867 14.5537ZM91.5989 14.6C91.5989 14.6145 91.5977 14.6241 91.5966 14.6297C91.5955 14.6352 91.5945 14.6376 91.5943 14.638C91.5942 14.6384 91.5941 14.6385 91.5938 14.639C91.5933 14.6396 91.5914 14.6421 91.5867 14.6463L92.2511 15.3937C92.487 15.184 92.5989 14.9034 92.5989 14.6H91.5989ZM91.5654 14.6664C91.5615 14.6703 91.5596 14.6714 91.5559 14.6728C91.5509 14.6747 91.5341 14.68 91.4989 14.68V15.68C91.7834 15.68 92.0579 15.5881 92.2725 15.3736L91.5654 14.6664ZM91.4989 14.68H84.8189V15.68H91.4989V14.68ZM84.3189 15.18V20.2H85.3189V15.18H84.3189ZM84.8189 20.7H90.5989V19.7H84.8189V20.7ZM90.5989 20.7C90.6134 20.7 90.623 20.7012 90.6286 20.7023C90.6341 20.7034 90.6365 20.7044 90.6369 20.7046C90.6373 20.7047 90.6374 20.7048 90.6379 20.7051C90.6385 20.7056 90.641 20.7075 90.6452 20.7122L91.3926 20.0478C91.1829 19.8119 90.9023 19.7 90.5989 19.7V20.7ZM90.6867 20.7537C90.6914 20.7579 90.6933 20.7604 90.6938 20.761C90.6941 20.7615 90.6942 20.7616 90.6943 20.762C90.6945 20.7624 90.6955 20.7648 90.6966 20.7703C90.6977 20.7759 90.6989 20.7855 90.6989 20.8H91.6989C91.6989 20.4966 91.587 20.216 91.3511 20.0063L90.6867 20.7537ZM90.6989 20.8C90.6989 20.8145 90.6977 20.8241 90.6966 20.8297C90.6955 20.8352 90.6945 20.8376 90.6943 20.838C90.6942 20.8384 90.6941 20.8385 90.6938 20.839C90.6933 20.8396 90.6914 20.8421 90.6867 20.8463L91.3511 21.5937C91.587 21.384 91.6989 21.1034 91.6989 20.8H90.6989ZM90.6654 20.8664C90.6615 20.8703 90.6596 20.8714 90.6559 20.8728C90.6509 20.8747 90.6341 20.88 90.5989 20.88V21.88C90.8834 21.88 91.1579 21.7881 91.3725 21.5736L90.6654 20.8664ZM90.5989 20.88H84.8189V21.88H90.5989V20.88ZM84.3189 21.38V26.82H85.3189V21.38H84.3189ZM84.8189 27.32H91.4989V26.32H84.8189V27.32ZM102.006 27.1L101.61 27.405L101.619 27.4175L101.63 27.4293L102.006 27.1ZM101.966 27.9L102.32 28.2536L102.329 28.2443L102.338 28.2345L101.966 27.9ZM101.046 27.8L100.65 28.1057L100.653 28.1089L101.046 27.8ZM97.9861 23.84L98.3817 23.5343L97.9851 23.021L97.5897 23.5352L97.9861 23.84ZM94.9261 27.82L94.5297 27.5152L94.5261 27.52L94.9261 27.82ZM94.0461 27.92L93.7139 28.2937L93.7262 28.3046L93.7391 28.3147L94.0461 27.92ZM94.0061 27.14L94.3824 27.4693L94.3916 27.4587L94.4002 27.4477L94.0061 27.14ZM97.2861 22.94L97.6802 23.2477L97.9199 22.9408L97.681 22.6333L97.2861 22.94ZM93.9461 18.64L93.546 18.94L93.5512 18.9467L93.9461 18.64ZM94.0061 17.86L93.6716 17.4884L93.6618 17.4971L93.6525 17.5064L94.0061 17.86ZM94.9261 17.94L94.515 18.2246L94.5228 18.2358L94.5311 18.2466L94.9261 17.94ZM98.0461 21.96L97.6511 22.2666L98.0539 22.7855L98.4468 22.259L98.0461 21.96ZM101.046 17.94L100.65 17.6351L100.645 17.641L101.046 17.94ZM101.946 17.84L101.57 18.1693L101.592 18.1943L101.617 18.2163L101.946 17.84ZM101.966 18.58L101.59 18.2507L101.579 18.2637L101.568 18.2773L101.966 18.58ZM98.7261 22.84L98.3281 22.5373L98.0965 22.8419L98.3299 23.145L98.7261 22.84ZM101.63 27.4293C101.642 27.4432 101.645 27.4506 101.645 27.4512C101.645 27.4519 101.645 27.4524 101.646 27.4531C101.646 27.4538 101.646 27.456 101.646 27.46H102.646C102.646 27.1975 102.55 26.9623 102.382 26.7707L101.63 27.4293ZM101.646 27.46C101.646 27.4813 101.643 27.512 101.594 27.5655L102.338 28.2345C102.53 28.0213 102.646 27.7587 102.646 27.46H101.646ZM101.613 27.5464C101.58 27.579 101.565 27.58 101.546 27.58V28.58C101.847 28.58 102.112 28.461 102.32 28.2536L101.613 27.5464ZM101.546 27.58C101.54 27.58 101.536 27.5796 101.525 27.5737C101.512 27.5661 101.481 27.5448 101.439 27.4911L100.653 28.1089C100.866 28.3804 101.166 28.58 101.546 28.58V27.58ZM101.442 27.4943L98.3817 23.5343L97.5905 24.1457L100.65 28.1057L101.442 27.4943ZM97.5897 23.5352L94.5297 27.5152L95.3225 28.1248L98.3825 24.1448L97.5897 23.5352ZM94.5261 27.52C94.5071 27.5453 94.4952 27.5514 94.4925 27.5528C94.4898 27.5542 94.4777 27.56 94.4461 27.56V28.56C94.8035 28.56 95.1117 28.4059 95.3261 28.12L94.5261 27.52ZM94.4461 27.56C94.4149 27.56 94.3888 27.5531 94.3531 27.5253L93.7391 28.3147C93.9434 28.4736 94.1839 28.56 94.4461 28.56V27.56ZM94.3783 27.5463C94.3716 27.5403 94.3684 27.5364 94.3673 27.535C94.3664 27.5337 94.3666 27.5337 94.3671 27.5348C94.3676 27.5359 94.3675 27.5362 94.3672 27.5348C94.3669 27.5333 94.3661 27.5286 94.3661 27.52H93.3661C93.3661 27.8234 93.4876 28.0925 93.7139 28.2937L94.3783 27.5463ZM94.3661 27.52C94.3661 27.4898 94.3718 27.4814 94.3824 27.4693L93.6298 26.8107C93.4537 27.012 93.3661 27.2568 93.3661 27.52H94.3661ZM94.4002 27.4477L97.6802 23.2477L96.892 22.6323L93.612 26.8323L94.4002 27.4477ZM97.681 22.6333L94.341 18.3333L93.5512 18.9467L96.8912 23.2467L97.681 22.6333ZM94.3461 18.34C94.331 18.3199 94.3261 18.3051 94.3261 18.28H93.3261C93.3261 18.5215 93.4012 18.7468 93.5461 18.94L94.3461 18.34ZM94.3261 18.28C94.3261 18.2613 94.3271 18.2461 94.3596 18.2136L93.6525 17.5064C93.4451 17.7139 93.3261 17.9787 93.3261 18.28H94.3261ZM94.3406 18.2316C94.3941 18.1835 94.4248 18.18 94.4461 18.18V17.18C94.1474 17.18 93.8848 17.2965 93.6716 17.4884L94.3406 18.2316ZM94.4461 18.18C94.4598 18.18 94.4678 18.1815 94.4716 18.1824C94.4751 18.1832 94.4768 18.184 94.478 18.1846C94.4787 18.1851 94.4926 18.1922 94.515 18.2246L95.3372 17.6554C95.1298 17.3558 94.8204 17.18 94.4461 17.18V18.18ZM94.5311 18.2466L97.6511 22.2666L98.4411 21.6534L95.3211 17.6334L94.5311 18.2466ZM98.4468 22.259L101.447 18.239L100.645 17.641L97.6454 21.661L98.4468 22.259ZM101.442 18.2449C101.491 18.1813 101.517 18.18 101.546 18.18V17.18C101.175 17.18 100.868 17.352 100.65 17.6351L101.442 18.2449ZM101.546 18.18C101.582 18.18 101.594 18.1855 101.59 18.1842C101.589 18.1836 101.585 18.1818 101.58 18.1785C101.576 18.1752 101.572 18.1717 101.57 18.1693L102.322 17.5107C102.113 17.2718 101.829 17.18 101.546 17.18V18.18ZM101.617 18.2163C101.619 18.2182 101.618 18.2178 101.616 18.215C101.614 18.2121 101.611 18.2079 101.609 18.2031C101.607 18.1982 101.606 18.1946 101.606 18.1931C101.606 18.1917 101.606 18.1937 101.606 18.2H102.606C102.606 17.9149 102.495 17.6557 102.275 17.4637L101.617 18.2163ZM101.606 18.2C101.606 18.2302 101.6 18.2386 101.59 18.2507L102.342 18.9093C102.518 18.708 102.606 18.4632 102.606 18.2H101.606ZM101.568 18.2773L98.3281 22.5373L99.1241 23.1427L102.364 18.8827L101.568 18.2773ZM98.3299 23.145L101.61 27.405L102.402 26.795L99.1223 22.535L98.3299 23.145ZM111.774 18.38L111.507 18.8032L111.513 18.8066L111.774 18.38ZM113.454 20.24L113.006 20.4637L113.011 20.4726L113.454 20.24ZM113.454 25.6L113.009 25.3705L113.008 25.3734L113.454 25.6ZM111.774 27.46L111.507 27.0369L111.504 27.0392L111.774 27.46ZM107.254 27.6L107.002 28.032L107.012 28.0379L107.254 27.6ZM105.714 26.12L106.137 25.8533L105.214 24.3893V26.12H105.714ZM105.534 31.82L105.201 31.4463L105.179 31.4658L105.16 31.4878L105.534 31.82ZM104.674 31.82L104.32 32.1736L104.32 32.1736L104.674 31.82ZM104.674 17.92L104.32 17.5664L104.31 17.5768L104.3 17.5878L104.674 17.92ZM105.534 17.92L105.16 18.2522L105.17 18.2632L105.18 18.2736L105.534 17.92ZM105.714 19.72H105.214L106.151 19.962L105.714 19.72ZM107.214 18.24L107.455 18.6779L107.455 18.6779L107.214 18.24ZM111.134 26.5L111.401 26.9223L111.404 26.9206L111.134 26.5ZM112.434 25.02L111.988 24.7926L111.984 24.8002L112.434 25.02ZM112.434 20.82L111.984 21.0398L111.99 21.0513L112.434 20.82ZM111.134 19.36L110.858 19.7777L110.87 19.7851L111.134 19.36ZM107.374 19.34L107.11 18.9149L107.11 18.9149L107.374 19.34ZM106.074 20.8L106.521 21.0236L106.523 21.0198L106.074 20.8ZM106.074 25.02L105.624 25.2398L105.624 25.2398L106.074 25.02ZM107.374 26.5L107.103 26.9207L107.11 26.9251L107.374 26.5ZM109.374 18.2C110.163 18.2 110.87 18.4018 111.507 18.8031L112.04 17.9569C111.237 17.4515 110.344 17.2 109.374 17.2V18.2ZM111.513 18.8066C112.148 19.1948 112.646 19.7422 113.006 20.4636L113.901 20.0164C113.462 19.1378 112.839 18.4452 112.034 17.9534L111.513 18.8066ZM113.011 20.4726C113.383 21.1799 113.574 21.9853 113.574 22.9H114.574C114.574 21.8414 114.351 20.8735 113.896 20.0074L113.011 20.4726ZM113.574 22.9C113.574 23.8291 113.382 24.649 113.009 25.3705L113.898 25.8295C114.352 24.951 114.574 23.9709 114.574 22.9H113.574ZM113.008 25.3734C112.647 26.0827 112.148 26.6335 111.507 27.0369L112.04 27.8831C112.839 27.3798 113.46 26.6906 113.899 25.8266L113.008 25.3734ZM111.504 27.0392C110.881 27.4383 110.183 27.64 109.394 27.64V28.64C110.364 28.64 111.252 28.3884 112.044 27.8808L111.504 27.0392ZM109.394 27.64C108.701 27.64 108.072 27.4798 107.495 27.1621L107.012 28.0379C107.742 28.4402 108.539 28.64 109.394 28.64V27.64ZM107.506 27.1681C106.933 26.8344 106.479 26.3971 106.137 25.8533L105.291 26.3867C105.721 27.0695 106.294 27.619 107.002 28.0319L107.506 27.1681ZM105.214 26.12V31.4H106.214V26.12H105.214ZM105.214 31.4C105.214 31.4145 105.212 31.4241 105.211 31.4297C105.21 31.4352 105.209 31.4376 105.209 31.438C105.209 31.4384 105.209 31.4385 105.208 31.439C105.208 31.4396 105.206 31.4421 105.201 31.4463L105.866 32.1937C106.102 31.984 106.214 31.7034 106.214 31.4H105.214ZM105.16 31.4878C105.156 31.4925 105.153 31.4944 105.153 31.4949C105.152 31.4952 105.152 31.4953 105.152 31.4954C105.151 31.4956 105.149 31.4966 105.143 31.4977C105.138 31.4988 105.128 31.5 105.114 31.5V32.5C105.417 32.5 105.698 32.3881 105.907 32.1522L105.16 31.4878ZM105.114 31.5C105.07 31.5 105.051 31.4905 105.027 31.4664L104.32 32.1736C104.536 32.3895 104.811 32.5 105.114 32.5V31.5ZM105.027 31.4664C105.023 31.4626 105.022 31.4607 105.021 31.457C105.019 31.452 105.014 31.4352 105.014 31.4H104.014C104.014 31.6845 104.105 31.959 104.32 32.1736L105.027 31.4664ZM105.014 31.4V18.36H104.014V31.4H105.014ZM105.014 18.36C105.014 18.2985 105.029 18.273 105.047 18.2522L104.3 17.5878C104.105 17.807 104.014 18.0748 104.014 18.36H105.014ZM105.027 18.2736C105.051 18.2495 105.07 18.24 105.114 18.24V17.24C104.811 17.24 104.536 17.3505 104.32 17.5664L105.027 18.2736ZM105.114 18.24C105.128 18.24 105.138 18.2412 105.143 18.2423C105.149 18.2434 105.151 18.2444 105.152 18.2446C105.152 18.2447 105.152 18.2448 105.153 18.2451C105.153 18.2456 105.156 18.2475 105.16 18.2522L105.907 17.5878C105.698 17.3519 105.417 17.24 105.114 17.24V18.24ZM105.18 18.2736C105.204 18.2976 105.214 18.3161 105.214 18.36H106.214C106.214 18.0572 106.103 17.7824 105.887 17.5664L105.18 18.2736ZM105.214 18.36V19.72H106.214V18.36H105.214ZM106.151 19.962C106.45 19.4214 106.881 18.9944 107.455 18.6779L106.972 17.8021C106.24 18.2056 105.67 18.7653 105.276 19.478L106.151 19.962ZM107.455 18.6779C108.03 18.3609 108.667 18.2 109.374 18.2V17.2C108.507 17.2 107.704 17.3991 106.972 17.8021L107.455 18.6779ZM109.274 27.52C110.055 27.52 110.769 27.3233 111.401 26.9223L110.866 26.0777C110.405 26.37 109.879 26.52 109.274 26.52V27.52ZM111.404 26.9206C112.045 26.5088 112.538 25.9443 112.883 25.2398L111.984 24.8002C111.716 25.349 111.343 25.7712 110.863 26.0794L111.404 26.9206ZM112.879 25.2474C113.239 24.5424 113.414 23.7563 113.414 22.9H112.414C112.414 23.6171 112.268 24.2443 111.988 24.7926L112.879 25.2474ZM113.414 22.9C113.414 22.0558 113.238 21.2815 112.877 20.5887L111.99 21.0513C112.269 21.5851 112.414 22.1976 112.414 22.9H113.414ZM112.883 20.6002C112.537 19.8942 112.042 19.3341 111.397 18.9349L110.87 19.7851C111.346 20.0792 111.717 20.4925 111.984 21.0398L112.883 20.6002ZM111.409 18.9424C110.775 18.5254 110.059 18.32 109.274 18.32V19.32C109.875 19.32 110.399 19.4746 110.859 19.7776L111.409 18.9424ZM109.274 18.32C108.481 18.32 107.755 18.5157 107.11 18.9149L107.637 19.7651C108.112 19.471 108.653 19.32 109.274 19.32V18.32ZM107.11 18.9149C106.466 19.3141 105.97 19.8742 105.624 20.5802L106.523 21.0198C106.791 20.4725 107.162 20.0592 107.637 19.7651L107.11 18.9149ZM105.626 20.5764C105.28 21.2687 105.114 22.0472 105.114 22.9H106.114C106.114 22.1795 106.254 21.5579 106.521 21.0236L105.626 20.5764ZM105.114 22.9C105.114 23.7531 105.28 24.5364 105.624 25.2398L106.523 24.8002C106.254 24.2503 106.114 23.6203 106.114 22.9H105.114ZM105.624 25.2398C105.969 25.9443 106.463 26.5088 107.103 26.9206L107.644 26.0794C107.165 25.7712 106.791 25.349 106.523 24.8002L105.624 25.2398ZM107.11 26.9251C107.755 27.3243 108.481 27.52 109.274 27.52V26.52C108.653 26.52 108.112 26.369 107.637 26.0749L107.11 26.9251ZM125.285 22.3H125.785L125.785 22.2932L125.285 22.3ZM125.105 22.72L125.437 23.0937L125.448 23.0839L125.458 23.0736L125.105 22.72ZM117.125 22.88V22.38H116.625V22.88H117.125ZM117.605 25.04L117.157 25.2637L117.163 25.2748L117.605 25.04ZM119.005 26.54L118.741 26.9647L118.752 26.9712L119.005 26.54ZM122.885 26.68L123.118 27.1225L123.118 27.1225L122.885 26.68ZM124.105 25.66L123.788 25.273L123.74 25.3123L123.703 25.3621L124.105 25.66ZM124.885 25.64L125.238 25.2864L125.238 25.2864L124.885 25.64ZM124.845 26.42L124.491 26.0664L124.474 26.0838L124.458 26.1028L124.845 26.42ZM123.225 27.7L122.998 27.2546L122.994 27.2565L123.225 27.7ZM118.465 27.54L118.221 27.9764L118.221 27.9764L118.465 27.54ZM116.625 25.7L116.187 25.941L116.188 25.9441L116.625 25.7ZM116.605 20.08L116.163 19.8451L116.162 19.8477L116.605 20.08ZM118.345 18.2L118.6 18.6302L118.606 18.6266L118.345 18.2ZM122.885 18.1L122.648 18.5402L122.651 18.5421L122.885 18.1ZM124.605 19.74L124.178 20.0007L124.178 20.0007L124.605 19.74ZM118.485 19.5L118.172 19.1095L118.169 19.1127L118.485 19.5ZM117.225 21.8L116.733 21.7083L116.623 22.3H117.225V21.8ZM124.045 21.8V22.3H124.545V21.8H124.045ZM124.045 21.64H124.545V21.6123L124.542 21.5848L124.045 21.64ZM123.445 20.08L123.042 20.3762L123.046 20.3819L123.445 20.08ZM122.185 19.06L121.966 19.5096L121.973 19.5131L121.981 19.5164L122.185 19.06ZM124.785 22.3C124.785 22.3187 124.784 22.3339 124.751 22.3664L125.458 23.0736C125.666 22.8661 125.785 22.6013 125.785 22.3H124.785ZM124.773 22.3463C124.744 22.3719 124.722 22.38 124.685 22.38V23.38C124.968 23.38 125.226 23.2814 125.437 23.0937L124.773 22.3463ZM124.685 22.38H117.125V23.38H124.685V22.38ZM116.625 22.88C116.625 23.7484 116.799 24.5463 117.158 25.2636L118.052 24.8164C117.771 24.2537 117.625 23.6116 117.625 22.88H116.625ZM117.163 25.2748C117.538 25.9789 118.066 26.5445 118.741 26.9645L119.269 26.1155C118.744 25.7889 118.338 25.3545 118.046 24.8052L117.163 25.2748ZM118.752 26.9712C119.454 27.3831 120.264 27.58 121.165 27.58V26.58C120.413 26.58 119.783 26.4169 119.258 26.1088L118.752 26.9712ZM121.165 27.58C121.876 27.58 122.531 27.4312 123.118 27.1225L122.652 26.2375C122.225 26.4621 121.733 26.58 121.165 26.58V27.58ZM123.118 27.1225C123.683 26.8248 124.15 26.438 124.506 25.9579L123.703 25.3621C123.446 25.7087 123.1 26.0018 122.652 26.2375L123.118 27.1225ZM124.421 26.047C124.516 25.9699 124.547 25.98 124.525 25.98V24.98C124.236 24.98 123.987 25.1101 123.788 25.273L124.421 26.047ZM124.525 25.98C124.525 25.98 124.523 25.98 124.519 25.9793C124.516 25.9786 124.513 25.9776 124.512 25.9769C124.508 25.9752 124.515 25.9772 124.531 25.9936L125.238 25.2864C125.051 25.0994 124.809 24.98 124.525 24.98V25.98ZM124.531 25.9936C124.548 26.0099 124.55 26.0168 124.548 26.0131C124.547 26.0114 124.546 26.0087 124.546 26.0055C124.545 26.004 124.545 26.0027 124.545 26.0016C124.545 26.0011 124.545 26.0007 124.545 26.0004C124.545 26.0003 124.545 26.0002 124.545 26.0001C124.545 26.0001 124.545 26 124.545 26C124.545 26 124.545 26 124.545 26C124.545 26 124.545 26 124.545 26C124.545 26 124.545 26 124.545 26H125.545C125.545 25.7162 125.425 25.4735 125.238 25.2864L124.531 25.9936ZM124.545 26C124.545 25.9947 124.547 25.9933 124.543 26C124.539 26.0088 124.526 26.0316 124.491 26.0664L125.198 26.7736C125.397 26.5745 125.545 26.3142 125.545 26H124.545ZM124.458 26.1028C124.079 26.5649 123.595 26.9497 122.998 27.2546L123.452 28.1454C124.161 27.7836 124.757 27.3151 125.231 26.7372L124.458 26.1028ZM122.994 27.2565C122.425 27.5528 121.824 27.7 121.185 27.7V28.7C121.985 28.7 122.745 28.5139 123.456 28.1435L122.994 27.2565ZM121.185 27.7C120.232 27.7 119.411 27.4964 118.709 27.1036L118.221 27.9764C119.092 28.4636 120.085 28.7 121.185 28.7V27.7ZM118.709 27.1036C118.003 26.7087 117.456 26.162 117.061 25.4559L116.188 25.9441C116.674 26.8114 117.353 27.4913 118.221 27.9764L118.709 27.1036ZM117.063 25.459C116.669 24.7426 116.465 23.9076 116.465 22.94H115.465C115.465 24.0524 115.701 25.0574 116.187 25.941L117.063 25.459ZM116.465 22.94C116.465 21.9122 116.665 21.0415 117.048 20.3123L116.162 19.8477C115.691 20.7452 115.465 21.7811 115.465 22.94H116.465ZM117.046 20.3149C117.448 19.5593 117.968 19.0047 118.6 18.6301L118.09 17.7699C117.282 18.2487 116.641 18.9474 116.163 19.8451L117.046 20.3149ZM118.606 18.6266C119.25 18.2327 119.927 18.04 120.645 18.04V17.04C119.736 17.04 118.88 17.2873 118.084 17.7734L118.606 18.6266ZM120.645 18.04C121.363 18.04 122.029 18.2068 122.648 18.5402L123.122 17.6598C122.355 17.2466 121.526 17.04 120.645 17.04V18.04ZM122.651 18.5421C123.274 18.8711 123.782 19.353 124.178 20.0007L125.031 19.4793C124.547 18.687 123.909 18.0756 123.118 17.6579L122.651 18.5421ZM124.178 20.0007C124.564 20.632 124.773 21.3944 124.785 22.3068L125.785 22.2932C125.77 21.2322 125.526 20.288 125.031 19.4793L124.178 20.0007ZM120.645 18.2C119.746 18.2 118.918 18.5131 118.172 19.1096L118.797 19.8904C119.385 19.4202 119.997 19.2 120.645 19.2V18.2ZM118.169 19.1127C117.406 19.7353 116.937 20.6171 116.733 21.7083L117.716 21.8917C117.886 20.9829 118.257 20.3313 118.801 19.8873L118.169 19.1127ZM117.225 22.3H124.045V21.3H117.225V22.3ZM124.545 21.8V21.64H123.545V21.8H124.545ZM124.542 21.5848C124.466 20.9038 124.236 20.2966 123.843 19.7781L123.046 20.3819C123.32 20.7434 123.49 21.1762 123.548 21.6952L124.542 21.5848ZM123.848 19.7838C123.464 19.2618 122.976 18.8661 122.389 18.6036L121.981 19.5164C122.407 19.7072 122.759 19.9915 123.042 20.3762L123.848 19.7838ZM122.404 18.6104C121.844 18.3382 121.256 18.2 120.645 18.2V19.2C121.1 19.2 121.539 19.3018 121.966 19.5096L122.404 18.6104ZM135.398 18.64L135.004 18.948L135.011 18.9558L135.398 18.64ZM136.098 27.84L136.43 28.2137L136.441 28.2039L136.452 28.1936L136.098 27.84ZM135.238 27.84L134.864 28.1722L134.884 28.1942L134.906 28.2137L135.238 27.84ZM134.418 19.48L134.024 19.7877L134.032 19.7982L134.418 19.48ZM130.778 19.06L130.55 18.6151L130.545 18.6175L130.778 19.06ZM129.538 20.14L129.943 20.4341L129.947 20.4283L129.538 20.14ZM128.878 27.84L128.525 27.4864L128.525 27.4864L128.878 27.84ZM128.018 27.84L127.644 28.1722L127.664 28.1942L127.686 28.2137L128.018 27.84ZM128.018 18.02L128.372 18.3736L128.372 18.3736L128.018 18.02ZM128.878 18.02L128.504 18.3522L128.524 18.3742L128.546 18.3937L128.878 18.02ZM129.058 19.54H128.558V21.2766L129.482 19.8059L129.058 19.54ZM130.598 18.12L130.842 18.5563L130.845 18.5546L130.598 18.12ZM132.678 18.04C133.819 18.04 134.555 18.3734 135.004 18.948L135.792 18.332C135.095 17.4399 134.017 17.04 132.678 17.04V18.04ZM135.011 18.9558C135.506 19.5634 135.778 20.401 135.778 21.52H136.778C136.778 20.239 136.464 19.1566 135.786 18.3242L135.011 18.9558ZM135.778 21.52V27.4H136.778V21.52H135.778ZM135.778 27.4C135.778 27.4439 135.769 27.4624 135.745 27.4864L136.452 28.1936C136.668 27.9776 136.778 27.7028 136.778 27.4H135.778ZM135.766 27.4663C135.737 27.4919 135.715 27.5 135.678 27.5V28.5C135.961 28.5 136.219 28.4014 136.43 28.2137L135.766 27.4663ZM135.678 27.5C135.617 27.5 135.591 27.4848 135.57 27.4663L134.906 28.2137C135.125 28.4085 135.393 28.5 135.678 28.5V27.5ZM135.612 27.5078C135.593 27.487 135.578 27.4615 135.578 27.4H134.578C134.578 27.6852 134.67 27.953 134.864 28.1722L135.612 27.5078ZM135.578 27.4V21.58H134.578V27.4H135.578ZM135.578 21.58C135.578 20.6274 135.335 19.8055 134.804 19.1618L134.032 19.7982C134.381 20.2211 134.578 20.7992 134.578 21.58H135.578ZM134.812 19.1724C134.263 18.4689 133.427 18.16 132.418 18.16V19.16C133.222 19.16 133.72 19.3978 134.024 19.7876L134.812 19.1724ZM132.418 18.16C131.764 18.16 131.139 18.3129 130.55 18.6151L131.006 19.5049C131.457 19.2737 131.926 19.16 132.418 19.16V18.16ZM130.545 18.6175C129.971 18.9198 129.497 19.3317 129.13 19.8517L129.947 20.4283C130.22 20.0416 130.572 19.7336 131.011 19.5025L130.545 18.6175ZM129.134 19.8459C128.755 20.3672 128.558 20.9492 128.558 21.58H129.558C129.558 21.1708 129.682 20.7928 129.942 20.4341L129.134 19.8459ZM128.558 21.58V27.4H129.558V21.58H128.558ZM128.558 27.4C128.558 27.4439 128.549 27.4624 128.525 27.4864L129.232 28.1936C129.448 27.9776 129.558 27.7028 129.558 27.4H128.558ZM128.525 27.4864C128.521 27.4903 128.519 27.4914 128.515 27.4928C128.51 27.4947 128.493 27.5 128.458 27.5V28.5C128.743 28.5 129.017 28.4081 129.232 28.1936L128.525 27.4864ZM128.458 27.5C128.397 27.5 128.371 27.4848 128.35 27.4663L127.686 28.2137C127.905 28.4085 128.173 28.5 128.458 28.5V27.5ZM128.392 27.5078C128.373 27.487 128.358 27.4615 128.358 27.4H127.358C127.358 27.6852 127.45 27.953 127.644 28.1722L128.392 27.5078ZM128.358 27.4V18.44H127.358V27.4H128.358ZM128.358 18.44C128.358 18.4048 128.363 18.388 128.365 18.383C128.367 18.3793 128.368 18.3774 128.372 18.3736L127.665 17.6664C127.45 17.881 127.358 18.1555 127.358 18.44H128.358ZM128.372 18.3736C128.396 18.3495 128.414 18.34 128.458 18.34V17.34C128.155 17.34 127.881 17.4505 127.665 17.6664L128.372 18.3736ZM128.458 18.34C128.473 18.34 128.482 18.3412 128.488 18.3423C128.493 18.3434 128.496 18.3444 128.496 18.3446C128.496 18.3447 128.497 18.3448 128.497 18.3451C128.498 18.3456 128.5 18.3475 128.504 18.3522L129.252 17.6878C129.042 17.4519 128.761 17.34 128.458 17.34V18.34ZM128.546 18.3937C128.551 18.3979 128.553 18.4004 128.553 18.401C128.553 18.4015 128.553 18.4016 128.554 18.402C128.554 18.4024 128.555 18.4048 128.556 18.4103C128.557 18.4159 128.558 18.4255 128.558 18.44H129.558C129.558 18.1366 129.446 17.856 129.21 17.6463L128.546 18.3937ZM128.558 18.44V19.54H129.558V18.44H128.558ZM129.482 19.8059C129.792 19.3122 130.239 18.894 130.842 18.5563L130.354 17.6837C129.624 18.0926 129.045 18.6212 128.635 19.2741L129.482 19.8059ZM130.845 18.5546C131.458 18.2061 132.067 18.04 132.678 18.04V17.04C131.876 17.04 131.098 17.2605 130.351 17.6854L130.845 18.5546ZM138.941 26.38L138.515 26.642L138.53 26.6671L138.549 26.6902L138.941 26.38ZM139.041 25.54L139.278 25.9802L139.342 25.9454L139.394 25.8936L139.041 25.54ZM139.801 25.62L140.199 25.3184L140.179 25.2908L140.154 25.2664L139.801 25.62ZM144.601 26.74L144.867 27.1633L144.87 27.1613L144.601 26.74ZM144.661 24.16L144.929 23.7382L144.929 23.7382L144.661 24.16ZM142.821 23.44L142.944 22.9554L142.943 22.9553L142.821 23.44ZM140.221 22.36L139.928 22.7652L139.933 22.7692L140.221 22.36ZM139.741 18.92L140.147 19.2118L140.151 19.2059L139.741 18.92ZM140.981 17.9L140.775 17.444L140.771 17.446L140.981 17.9ZM144.501 17.88L144.317 18.3452L144.33 18.3499L144.501 17.88ZM146.001 18.92L145.622 19.2463L145.654 19.2841L145.694 19.3147L146.001 18.92ZM145.981 19.74L146.306 20.1197L146.315 20.1116L145.981 19.74ZM145.261 19.7L144.887 20.0322L144.897 20.0432L144.907 20.0536L145.261 19.7ZM141.081 19.04L140.809 18.6202L140.803 18.624L141.081 19.04ZM140.421 20.36H139.921V20.3725L139.921 20.385L140.421 20.36ZM141.141 21.58L140.878 22.0054L140.883 22.0087L141.141 21.58ZM143.181 22.34L143.058 22.8246L143.059 22.8251L143.181 22.34ZM146.001 23.82L145.596 24.1133L145.602 24.1222L146.001 23.82ZM145.401 27.44L145.696 27.8437L145.701 27.84L145.401 27.44ZM139.366 26.118C139.326 26.0519 139.303 26.0028 139.291 25.9691C139.278 25.935 139.281 25.9272 139.281 25.94H138.281C138.281 26.1965 138.39 26.4385 138.515 26.642L139.366 26.118ZM139.281 25.94C139.281 25.9386 139.281 25.9439 139.278 25.9535C139.275 25.9634 139.271 25.9736 139.265 25.9825C139.253 26.001 139.248 25.9965 139.278 25.9802L138.804 25.0998C138.495 25.2659 138.281 25.5542 138.281 25.94H139.281ZM139.394 25.8936C139.389 25.8983 139.383 25.9034 139.376 25.9081C139.369 25.9128 139.362 25.916 139.356 25.9182C139.345 25.9225 139.344 25.92 139.361 25.92V24.92C139.12 24.92 138.877 24.9961 138.687 25.1864L139.394 25.8936ZM139.361 25.92C139.365 25.92 139.389 25.916 139.447 25.9736L140.154 25.2664C139.945 25.0574 139.677 24.92 139.361 24.92V25.92ZM139.402 25.9216C140.283 27.0869 141.478 27.68 142.941 27.68V26.68C141.79 26.68 140.891 26.2331 140.199 25.3184L139.402 25.9216ZM142.941 27.68C143.659 27.68 144.308 27.5144 144.867 27.1633L144.335 26.3167C143.96 26.5523 143.502 26.68 142.941 26.68V27.68ZM144.87 27.1613C145.495 26.7621 145.821 26.1626 145.821 25.42H144.821C144.821 25.8241 144.666 26.1046 144.331 26.3187L144.87 27.1613ZM145.821 25.42C145.821 24.7042 145.526 24.1178 144.929 23.7382L144.392 24.5818C144.676 24.7622 144.821 25.0158 144.821 25.42H145.821ZM144.929 23.7382C144.427 23.4184 143.757 23.1621 142.944 22.9554L142.697 23.9246C143.458 24.1179 144.015 24.3416 144.392 24.5818L144.929 23.7382ZM142.943 22.9553C141.869 22.6836 141.067 22.3431 140.508 21.9508L139.933 22.7692C140.628 23.2569 141.558 23.6364 142.698 23.9247L142.943 22.9553ZM140.514 21.9549C140.034 21.6079 139.781 21.1086 139.781 20.38H138.781C138.781 21.3847 139.154 22.2054 139.928 22.7651L140.514 21.9549ZM139.781 20.38C139.781 19.9335 139.904 19.5499 140.147 19.2118L139.335 18.6282C138.964 19.1435 138.781 19.7331 138.781 20.38H139.781ZM140.151 19.2059C140.403 18.8437 140.745 18.5594 141.19 18.354L140.771 17.446C140.176 17.7206 139.691 18.1163 139.33 18.6341L140.151 19.2059ZM141.186 18.356C141.646 18.1488 142.175 18.04 142.781 18.04V17.04C142.053 17.04 141.382 17.1712 140.775 17.444L141.186 18.356ZM142.781 18.04C143.286 18.04 143.798 18.1397 144.317 18.345L144.684 17.415C144.057 17.167 143.422 17.04 142.781 17.04V18.04ZM144.33 18.3499C144.835 18.5335 145.263 18.8302 145.622 19.2463L146.38 18.5937C145.911 18.0498 145.34 17.6532 144.672 17.4101L144.33 18.3499ZM145.694 19.3147C145.694 19.3148 145.691 19.3128 145.688 19.3084C145.684 19.304 145.681 19.2992 145.68 19.2952C145.678 19.2913 145.678 19.2902 145.679 19.2935C145.679 19.297 145.681 19.3054 145.681 19.32H146.681C146.681 19.0169 146.568 18.7275 146.308 18.5253L145.694 19.3147ZM145.681 19.32C145.681 19.325 145.68 19.3273 145.68 19.3278C145.68 19.3282 145.68 19.3287 145.679 19.33C145.678 19.332 145.671 19.3455 145.646 19.3684L146.315 20.1116C146.54 19.9096 146.681 19.6398 146.681 19.32H145.681ZM145.655 19.3604C145.657 19.3592 145.659 19.3578 145.66 19.3567C145.662 19.3556 145.663 19.3554 145.663 19.3557C145.661 19.3562 145.649 19.36 145.621 19.36V20.36C145.862 20.36 146.105 20.2917 146.306 20.1196L145.655 19.3604ZM145.621 19.36C145.621 19.36 145.623 19.36 145.626 19.3607C145.629 19.3614 145.632 19.3624 145.634 19.3631C145.637 19.3648 145.63 19.3628 145.614 19.3464L144.907 20.0536C145.094 20.2406 145.337 20.36 145.621 20.36V19.36ZM145.634 19.3678C145.265 18.9529 144.825 18.6356 144.316 18.4197L143.925 19.3403C144.297 19.4978 144.616 19.7271 144.887 20.0322L145.634 19.3678ZM144.316 18.4197C143.81 18.2053 143.27 18.1 142.701 18.1V19.1C143.144 19.1 143.551 19.1814 143.925 19.3403L144.316 18.4197ZM142.701 18.1C141.993 18.1 141.356 18.2665 140.809 18.6202L141.352 19.4598C141.712 19.2268 142.155 19.1 142.701 19.1V18.1ZM140.803 18.624C140.207 19.0214 139.921 19.6277 139.921 20.36H140.921C140.921 19.919 141.074 19.6453 141.358 19.456L140.803 18.624ZM139.921 20.385C139.956 21.0821 140.284 21.6387 140.878 22.0054L141.403 21.1546C141.09 20.9613 140.938 20.7045 140.92 20.335L139.921 20.385ZM140.883 22.0087C141.411 22.3252 142.145 22.5931 143.058 22.8246L143.304 21.8554C142.43 21.6336 141.804 21.3948 141.398 21.1513L140.883 22.0087ZM143.059 22.8251C143.733 22.9936 144.273 23.1774 144.688 23.3724L145.114 22.4676C144.621 22.2359 144.015 22.0331 143.302 21.8549L143.059 22.8251ZM144.688 23.3724C145.069 23.5516 145.368 23.7984 145.596 24.1133L146.406 23.5267C146.074 23.0682 145.639 22.7151 145.114 22.4676L144.688 23.3724ZM145.602 24.1222C145.811 24.3978 145.941 24.7944 145.941 25.36H146.941C146.941 24.6456 146.777 24.0155 146.399 23.5178L145.602 24.1222ZM145.941 25.36C145.941 26.0693 145.668 26.6144 145.101 27.04L145.701 27.84C146.52 27.2256 146.941 26.384 146.941 25.36H145.941ZM145.106 27.0363C144.514 27.4689 143.763 27.7 142.821 27.7V28.7C143.932 28.7 144.901 28.4244 145.696 27.8437L145.106 27.0363ZM142.821 27.7C141.338 27.7 140.192 27.1563 139.333 26.0698L138.549 26.6902C139.609 28.0304 141.05 28.7 142.821 28.7V27.7ZM157.636 22.3H158.136L158.136 22.2932L157.636 22.3ZM157.456 22.72L157.788 23.0937L157.799 23.0839L157.809 23.0736L157.456 22.72ZM149.476 22.88V22.38H148.976V22.88H149.476ZM149.956 25.04L149.508 25.2637L149.514 25.2748L149.956 25.04ZM151.356 26.54L151.091 26.9647L151.103 26.9712L151.356 26.54ZM155.236 26.68L155.469 27.1225L155.469 27.1225L155.236 26.68ZM156.456 25.66L156.139 25.273L156.091 25.3123L156.054 25.3621L156.456 25.66ZM157.236 25.64L157.589 25.2864L157.589 25.2864L157.236 25.64ZM157.196 26.42L156.842 26.0664L156.825 26.0838L156.809 26.1028L157.196 26.42ZM155.576 27.7L155.348 27.2546L155.345 27.2565L155.576 27.7ZM150.816 27.54L150.572 27.9764L150.572 27.9764L150.816 27.54ZM148.976 25.7L148.538 25.941L148.539 25.9441L148.976 25.7ZM148.956 20.08L148.514 19.8451L148.513 19.8477L148.956 20.08ZM150.696 18.2L150.951 18.6302L150.956 18.6266L150.696 18.2ZM155.236 18.1L154.999 18.5402L155.002 18.5421L155.236 18.1ZM156.956 19.74L156.529 20.0007L156.529 20.0007L156.956 19.74ZM150.836 19.5L150.523 19.1095L150.519 19.1127L150.836 19.5ZM149.576 21.8L149.084 21.7083L148.974 22.3H149.576V21.8ZM156.396 21.8V22.3H156.896V21.8H156.396ZM156.396 21.64H156.896V21.6123L156.893 21.5848L156.396 21.64ZM155.796 20.08L155.393 20.3762L155.397 20.3819L155.796 20.08ZM154.536 19.06L154.317 19.5096L154.324 19.5131L154.331 19.5164L154.536 19.06ZM157.136 22.3C157.136 22.3187 157.135 22.3339 157.102 22.3664L157.809 23.0736C158.017 22.8661 158.136 22.6013 158.136 22.3H157.136ZM157.123 22.3463C157.095 22.3719 157.073 22.38 157.036 22.38V23.38C157.319 23.38 157.577 23.2814 157.788 23.0937L157.123 22.3463ZM157.036 22.38H149.476V23.38H157.036V22.38ZM148.976 22.88C148.976 23.7484 149.15 24.5463 149.508 25.2636L150.403 24.8164C150.121 24.2537 149.976 23.6116 149.976 22.88H148.976ZM149.514 25.2748C149.889 25.9789 150.416 26.5445 151.091 26.9645L151.62 26.1155C151.095 25.7889 150.689 25.3545 150.397 24.8052L149.514 25.2748ZM151.103 26.9712C151.804 27.3831 152.615 27.58 153.516 27.58V26.58C152.763 26.58 152.134 26.4169 151.609 26.1088L151.103 26.9712ZM153.516 27.58C154.227 27.58 154.882 27.4312 155.469 27.1225L155.003 26.2375C154.576 26.4621 154.084 26.58 153.516 26.58V27.58ZM155.469 27.1225C156.034 26.8248 156.501 26.438 156.857 25.9579L156.054 25.3621C155.797 25.7087 155.451 26.0018 155.003 26.2375L155.469 27.1225ZM156.772 26.047C156.866 25.9699 156.898 25.98 156.876 25.98V24.98C156.587 24.98 156.338 25.1101 156.139 25.273L156.772 26.047ZM156.876 25.98C156.875 25.98 156.873 25.98 156.87 25.9793C156.867 25.9786 156.864 25.9776 156.863 25.9769C156.859 25.9752 156.866 25.9772 156.882 25.9936L157.589 25.2864C157.402 25.0994 157.159 24.98 156.876 24.98V25.98ZM156.882 25.9936C156.898 26.0099 156.9 26.0168 156.899 26.0131C156.898 26.0114 156.897 26.0087 156.896 26.0055C156.896 26.004 156.896 26.0027 156.896 26.0016C156.896 26.0011 156.896 26.0007 156.896 26.0004C156.896 26.0003 156.896 26.0002 156.896 26.0001C156.896 26.0001 156.896 26 156.896 26C156.896 26 156.896 26 156.896 26C156.896 26 156.896 26 156.896 26C156.896 26 156.896 26 156.896 26H157.896C157.896 25.7162 157.776 25.4735 157.589 25.2864L156.882 25.9936ZM156.896 26C156.896 25.9947 156.897 25.9933 156.894 26C156.89 26.0088 156.877 26.0316 156.842 26.0664L157.549 26.7736C157.748 26.5745 157.896 26.3142 157.896 26H156.896ZM156.809 26.1028C156.43 26.5649 155.946 26.9497 155.348 27.2546L155.803 28.1454C156.512 27.7836 157.108 27.3151 157.582 26.7372L156.809 26.1028ZM155.345 27.2565C154.776 27.5528 154.175 27.7 153.536 27.7V28.7C154.336 28.7 155.095 28.5139 155.807 28.1435L155.345 27.2565ZM153.536 27.7C152.582 27.7 151.762 27.4964 151.06 27.1036L150.572 27.9764C151.443 28.4636 152.436 28.7 153.536 28.7V27.7ZM151.06 27.1036C150.354 26.7087 149.807 26.162 149.412 25.4559L148.539 25.9441C149.024 26.8114 149.704 27.4913 150.572 27.9764L151.06 27.1036ZM149.414 25.459C149.02 24.7426 148.816 23.9076 148.816 22.94H147.816C147.816 24.0524 148.052 25.0574 148.538 25.941L149.414 25.459ZM148.816 22.94C148.816 21.9122 149.016 21.0415 149.398 20.3123L148.513 19.8477C148.042 20.7452 147.816 21.7811 147.816 22.94H148.816ZM149.397 20.3149C149.799 19.5593 150.319 19.0047 150.951 18.6301L150.441 17.7699C149.633 18.2487 148.992 18.9474 148.514 19.8451L149.397 20.3149ZM150.956 18.6266C151.601 18.2327 152.278 18.04 152.996 18.04V17.04C152.087 17.04 151.23 17.2873 150.435 17.7734L150.956 18.6266ZM152.996 18.04C153.714 18.04 154.379 18.2068 154.999 18.5402L155.473 17.6598C154.705 17.2466 153.877 17.04 152.996 17.04V18.04ZM155.002 18.5421C155.625 18.8711 156.133 19.353 156.529 20.0007L157.382 19.4793C156.898 18.687 156.26 18.0756 155.469 17.6579L155.002 18.5421ZM156.529 20.0007C156.915 20.632 157.123 21.3944 157.136 22.3068L158.136 22.2932C158.121 21.2322 157.876 20.288 157.382 19.4793L156.529 20.0007ZM152.996 18.2C152.097 18.2 151.269 18.5131 150.523 19.1096L151.148 19.8904C151.736 19.4202 152.348 19.2 152.996 19.2V18.2ZM150.519 19.1127C149.757 19.7353 149.288 20.6171 149.084 21.7083L150.067 21.8917C150.237 20.9829 150.608 20.3313 151.152 19.8873L150.519 19.1127ZM149.576 22.3H156.396V21.3H149.576V22.3ZM156.896 21.8V21.64H155.896V21.8H156.896ZM156.893 21.5848C156.817 20.9038 156.587 20.2966 156.194 19.7781L155.397 20.3819C155.671 20.7434 155.841 21.1762 155.899 21.6952L156.893 21.5848ZM156.198 19.7838C155.815 19.2618 155.327 18.8661 154.74 18.6036L154.331 19.5164C154.758 19.7072 155.11 19.9915 155.393 20.3762L156.198 19.7838ZM154.754 18.6104C154.195 18.3382 153.607 18.2 152.996 18.2V19.2C153.451 19.2 153.89 19.3018 154.317 19.5096L154.754 18.6104ZM159.629 26.38L159.203 26.642L159.219 26.6671L159.237 26.6902L159.629 26.38ZM159.729 25.54L159.966 25.9802L160.031 25.9454L160.082 25.8936L159.729 25.54ZM160.489 25.62L160.888 25.3184L160.867 25.2908L160.842 25.2664L160.489 25.62ZM165.289 26.74L165.555 27.1633L165.558 27.1613L165.289 26.74ZM165.349 24.16L165.617 23.7382L165.617 23.7382L165.349 24.16ZM163.509 23.44L163.632 22.9554L163.632 22.9553L163.509 23.44ZM160.909 22.36L160.616 22.7652L160.622 22.7692L160.909 22.36ZM160.429 18.92L160.835 19.2118L160.839 19.2059L160.429 18.92ZM161.669 17.9L161.464 17.444L161.459 17.446L161.669 17.9ZM165.189 17.88L165.005 18.3452L165.018 18.3499L165.189 17.88ZM166.689 18.92L166.31 19.2463L166.343 19.2841L166.382 19.3147L166.689 18.92ZM166.669 19.74L166.994 20.1197L167.003 20.1116L166.669 19.74ZM165.949 19.7L165.575 20.0322L165.585 20.0432L165.595 20.0536L165.949 19.7ZM161.769 19.04L161.497 18.6202L161.492 18.624L161.769 19.04ZM161.109 20.36H160.609V20.3725L160.61 20.385L161.109 20.36ZM161.829 21.58L161.566 22.0054L161.572 22.0087L161.829 21.58ZM163.869 22.34L163.746 22.8246L163.748 22.8251L163.869 22.34ZM166.689 23.82L166.284 24.1133L166.291 24.1222L166.689 23.82ZM166.089 27.44L166.384 27.8437L166.389 27.84L166.089 27.44ZM160.055 26.118C160.014 26.0519 159.991 26.0028 159.979 25.9691C159.966 25.935 159.969 25.9272 159.969 25.94H158.969C158.969 26.1965 159.078 26.4385 159.203 26.642L160.055 26.118ZM159.969 25.94C159.969 25.9386 159.969 25.9439 159.966 25.9535C159.964 25.9634 159.959 25.9736 159.953 25.9825C159.941 26.001 159.936 25.9965 159.966 25.9802L159.492 25.0998C159.183 25.2659 158.969 25.5542 158.969 25.94H159.969ZM160.082 25.8936C160.078 25.8983 160.072 25.9034 160.064 25.9081C160.057 25.9128 160.05 25.916 160.044 25.9182C160.033 25.9225 160.032 25.92 160.049 25.92V24.92C159.808 24.92 159.566 24.9961 159.375 25.1864L160.082 25.8936ZM160.049 25.92C160.053 25.92 160.078 25.916 160.135 25.9736L160.842 25.2664C160.633 25.0574 160.365 24.92 160.049 24.92V25.92ZM160.09 25.9216C160.972 27.0869 162.166 27.68 163.629 27.68V26.68C162.479 26.68 161.58 26.2331 160.888 25.3184L160.09 25.9216ZM163.629 27.68C164.348 27.68 164.996 27.5144 165.555 27.1633L165.023 26.3167C164.648 26.5523 164.19 26.68 163.629 26.68V27.68ZM165.558 27.1613C166.183 26.7621 166.509 26.1626 166.509 25.42H165.509C165.509 25.8241 165.355 26.1046 165.02 26.3187L165.558 27.1613ZM166.509 25.42C166.509 24.7042 166.214 24.1178 165.617 23.7382L165.08 24.5818C165.364 24.7622 165.509 25.0158 165.509 25.42H166.509ZM165.617 23.7382C165.115 23.4184 164.445 23.1621 163.632 22.9554L163.386 23.9246C164.146 24.1179 164.703 24.3416 165.08 24.5818L165.617 23.7382ZM163.632 22.9553C162.558 22.6836 161.755 22.3431 161.196 21.9508L160.622 22.7692C161.316 23.2569 162.247 23.6364 163.386 23.9247L163.632 22.9553ZM161.202 21.9549C160.722 21.6079 160.469 21.1086 160.469 20.38H159.469C159.469 21.3847 159.842 22.2054 160.616 22.7651L161.202 21.9549ZM160.469 20.38C160.469 19.9335 160.592 19.5499 160.835 19.2118L160.023 18.6282C159.653 19.1435 159.469 19.7331 159.469 20.38H160.469ZM160.839 19.2059C161.092 18.8437 161.433 18.5594 161.878 18.354L161.459 17.446C160.864 17.7206 160.38 18.1163 160.019 18.6341L160.839 19.2059ZM161.874 18.356C162.334 18.1488 162.863 18.04 163.469 18.04V17.04C162.741 17.04 162.07 17.1712 161.464 17.444L161.874 18.356ZM163.469 18.04C163.975 18.04 164.486 18.1397 165.005 18.345L165.373 17.415C164.745 17.167 164.11 17.04 163.469 17.04V18.04ZM165.018 18.3499C165.523 18.5335 165.952 18.8302 166.31 19.2463L167.068 18.5937C166.599 18.0498 166.028 17.6532 165.36 17.4101L165.018 18.3499ZM166.382 19.3147C166.382 19.3148 166.38 19.3128 166.376 19.3084C166.373 19.304 166.37 19.2992 166.368 19.2952C166.366 19.2913 166.366 19.2902 166.367 19.2935C166.368 19.297 166.369 19.3054 166.369 19.32H167.369C167.369 19.0169 167.256 18.7275 166.996 18.5253L166.382 19.3147ZM166.369 19.32C166.369 19.325 166.368 19.3273 166.368 19.3278C166.368 19.3282 166.368 19.3287 166.367 19.33C166.367 19.332 166.36 19.3455 166.334 19.3684L167.003 20.1116C167.228 19.9096 167.369 19.6398 167.369 19.32H166.369ZM166.344 19.3604C166.345 19.3592 166.347 19.3578 166.349 19.3567C166.351 19.3556 166.352 19.3554 166.351 19.3557C166.349 19.3562 166.337 19.36 166.309 19.36V20.36C166.551 20.36 166.794 20.2917 166.994 20.1196L166.344 19.3604ZM166.309 19.36C166.309 19.36 166.311 19.36 166.314 19.3607C166.318 19.3614 166.32 19.3624 166.322 19.3631C166.326 19.3648 166.319 19.3628 166.302 19.3464L165.595 20.0536C165.782 20.2406 166.025 20.36 166.309 20.36V19.36ZM166.323 19.3678C165.954 18.9529 165.513 18.6356 165.004 18.4197L164.614 19.3403C164.985 19.4978 165.304 19.7271 165.575 20.0322L166.323 19.3678ZM165.004 18.4197C164.499 18.2053 163.959 18.1 163.389 18.1V19.1C163.833 19.1 164.239 19.1814 164.614 19.3403L165.004 18.4197ZM163.389 18.1C162.682 18.1 162.044 18.2665 161.497 18.6202L162.041 19.4598C162.401 19.2268 162.843 19.1 163.389 19.1V18.1ZM161.492 18.624C160.895 19.0214 160.609 19.6277 160.609 20.36H161.609C161.609 19.919 161.762 19.6453 162.046 19.456L161.492 18.624ZM160.61 20.385C160.644 21.0821 160.973 21.6387 161.566 22.0054L162.092 21.1546C161.779 20.9613 161.627 20.7045 161.608 20.335L160.61 20.385ZM161.572 22.0087C162.099 22.3252 162.833 22.5931 163.746 22.8246L163.992 21.8554C163.118 21.6336 162.492 21.3948 162.086 21.1513L161.572 22.0087ZM163.748 22.8251C164.422 22.9936 164.962 23.1774 165.376 23.3724L165.802 22.4676C165.31 22.2359 164.703 22.0331 163.99 21.8549L163.748 22.8251ZM165.376 23.3724C165.757 23.5516 166.056 23.7984 166.284 24.1133L167.094 23.5267C166.762 23.0682 166.328 22.7151 165.802 22.4676L165.376 23.3724ZM166.291 24.1222C166.5 24.3978 166.629 24.7944 166.629 25.36H167.629C167.629 24.6456 167.465 24.0155 167.087 23.5178L166.291 24.1222ZM166.629 25.36C166.629 26.0693 166.356 26.6144 165.789 27.04L166.389 27.84C167.208 27.2256 167.629 26.384 167.629 25.36H166.629ZM165.794 27.0363C165.202 27.4689 164.451 27.7 163.509 27.7V28.7C164.62 28.7 165.589 28.4244 166.384 27.8437L165.794 27.0363ZM163.509 27.7C162.026 27.7 160.881 27.1563 160.021 26.0698L159.237 26.6902C160.297 28.0304 161.738 28.7 163.509 28.7V27.7Z" fill="white"/>
</svg>
